<svg xmlns="http://www.w3.org/2000/svg" viewBox="0 0 720 650">
<defs><clipPath id="frame"><path d="M42 545V274a318 260 0 0 1 636 0v271Z"/></clipPath><linearGradient id="sky" x2="0" y2="1"><stop stop-color="#e0e4d4"/><stop offset="1" stop-color="#f0e9cf"/></linearGradient><g id="fir"><path d="M0-115-29-64h14l-29 43h20L-50 18H50L25-21h20L15-64h14Z" fill="currentColor"/><path d="M-3 11h6v21h-6Z" fill="#52634a"/></g><g id="grass" fill="none" stroke="#8d986b" stroke-width="2"><path d="M0 0-6-18M0 0l4-23M0 0l13-12"/></g></defs>
<path d="M29 546V274a331 273 0 0 1 662 0v272" fill="none" stroke="#b2bc9e"/><g clip-path="url(#frame)"><path fill="url(#sky)" d="M0 0h720v550H0z"/><circle cx="451" cy="142" r="53" fill="#f6f0d7"/><circle cx="451" cy="142" r="67" fill="none" stroke="#cbd1b9"/><path d="m0 321 167-144 98 95 109-87 101 84 93-77 152 136v240H0Z" fill="#b8c6ad"/><path d="m0 362 141-75 150 69 189-91 240 84v210H0Z" fill="#8ea888"/><path d="M0 378Q174 288 335 414T740 361V566H0Z" fill="#577d62"/><path d="M0 454Q232 355 375 417T740 404V578H0Z" fill="#355c46"/><path d="M361 352q-43 30 15 61t-6 56q-78 27-64 104h169q-111-70-54-101 57-29-18-66t-42-54Z" fill="#c7bb8c"/>
<g color="#567659"><use href="#fir" transform="translate(103 344) scale(.8)"/><use href="#fir" transform="translate(592 326) scale(.6)"/><use href="#fir" transform="translate(537 319) scale(.45)"/><use href="#fir" transform="translate(177 330) scale(.45)"/></g><g color="#244b3c"><use href="#fir" transform="translate(55 442) scale(1.65)"/><use href="#fir" transform="translate(127 441) scale(1.1)"/><use href="#fir" transform="translate(657 429) scale(1.5)"/><use href="#fir" transform="translate(593 454) scale(.9)"/></g><g color="#173f32"><use href="#fir" transform="translate(50 535) scale(1.3)"/><use href="#fir" transform="translate(697 541) scale(1.9)"/></g><path d="m459 470 68-88 67 88Z" fill="#bc9961"/><path d="m527 382-15 88h-53Z" fill="#e0c08a"/><path d="m527 411 24 59h-39Z" fill="#334c38"/><path d="m527 382 82 93m-82-93-82 93" fill="none" stroke="#dfc898" stroke-width="2"/><ellipse cx="235" cy="494" rx="20" ry="5" fill="#233d2c"/><path d="m219 490 31 5m-28 3 26-10" stroke="#aa8150" stroke-width="4"/><path d="M227 491q-15-12 4-29 0 11 6 13 9 10-1 17" fill="#dfa452"/><path d="M231 489q-4-6 2-13 6 7 2 13" fill="#f4d597"/><g><use href="#grass" x="169" y="502"/><use href="#grass" x="498" y="527"/><use href="#grass" x="554" y="497"/></g><g fill="#d8ce9e"><circle cx="148" cy="450" r="2"/><circle cx="437" cy="475" r="2"/><circle cx="264" cy="439" r="2"/><circle cx="571" cy="361" r="2"/></g><path d="m302 133 8-3 8 3m-44 25 6-3 6 3" fill="none" stroke="#7f9373" stroke-width="2"/></g>
<path d="M28 549h665" stroke="#8e9e79"/><g transform="translate(97 551) rotate(-12)" fill="none" stroke="#879870" stroke-width="2"><path d="M0 44Q-1 3 43-34"/><path d="M6 19q-25-6-17-25Q7-3 6 19m8-16q-3-27 14-26Q37-4 14 3m12-19q-3-22 19-23Q54-23 26-16" fill="#a6b192"/></g><text x="359" y="592" text-anchor="middle" font-family="Georgia,serif" font-size="12" letter-spacing="5" fill="#7c8967">THE LITTLE ADVENTURES</text><path d="m345 613 14-5 14 5-14 5Z" fill="#a5a27a"/></svg>
